<?xml version="1.0" encoding="UTF-8"?>
<svg id="Layer_1" data-name="Layer 1" xmlns="http://www.w3.org/2000/svg" viewBox="0 0 917.57 917.57">
  <defs>
    <style>
      .cls-1 {
        fill: #d97757;
      }

      .cls-2 {
        fill: #fff;
      }

      .cls-3 {
        fill: #9c5748;
      }
    </style>
  </defs>
  <path class="cls-1" d="M580.59,221.8c-11.33,0-20.52,9.19-20.52,20.52,0,5.74,2.36,10.92,6.16,14.64h0s-25.92,42.12-25.92,42.12c-1.55-.44-3.17-.67-4.84-.67-.86,0-1.69.05-2.51.18l-21.93-51.25v-.02c5.11-3.73,8.45-9.75,8.45-16.57,0-11.33-9.19-20.52-20.52-20.52s-20.52,9.19-20.52,20.52,9.19,20.52,20.52,20.52c1.26,0,2.49-.13,3.69-.35h0s21.93,51.21,21.93,51.21c-4.23,3.24-6.96,8.38-6.96,14.13,0,3.01.75,5.85,2.06,8.32l-60.88,57.64-60.88-57.62c1.31-2.5,2.06-5.34,2.06-8.34,0-5.75-2.73-10.89-6.96-14.13l21.93-51.19h0c1.19.21,2.42.34,3.68.34,11.33,0,20.52-9.19,20.52-20.52s-9.19-20.52-20.52-20.52-20.52,9.19-20.52,20.52c0,6.82,3.34,12.85,8.46,16.58h0s-21.93,51.26-21.93,51.26c-.82-.13-1.66-.18-2.51-.18-1.68,0-3.31.24-4.86.67l-25.91-42.12c3.8-3.72,6.16-8.9,6.16-14.64,0-11.33-9.19-20.52-20.52-20.52s-20.52,9.19-20.52,20.52,9.19,20.52,20.52,20.52c2.31,0,4.53-.4,6.6-1.11v.02s25.84,41.96,25.84,41.96c-3.19,3.22-5.15,7.67-5.15,12.55,0,9.85,7.99,17.85,17.85,17.85,3.55,0,6.85-1.04,9.62-2.8l62.5,59.17v110.5c-9.14,2.07-15.97,10.23-15.97,19.99,0,11.33,9.19,20.52,20.52,20.52s20.52-9.19,20.52-20.52c0-9.76-6.82-17.91-15.95-19.99v-110.51l62.5-59.19c2.77,1.78,6.06,2.82,9.62,2.82,9.85,0,17.85-8,17.85-17.85,0-4.88-1.97-9.32-5.17-12.55l25.84-41.96h0c2.07.69,4.29,1.09,6.6,1.09,11.33,0,20.52-9.19,20.52-20.52s-9.19-20.52-20.52-20.52ZM382.12,324.26c-4.43,0-8.01-3.59-8.01-8.01,0-1.29.29-2.5.84-3.57,1.06-2.15,3.06-3.73,5.46-4.26.55-.13,1.13-.18,1.71-.18.27,0,.55.02.8.04,2.48.25,4.63,1.62,5.92,3.61.82,1.24,1.29,2.75,1.29,4.37,0,.31-.02.62-.05.93-.38,3.35-2.82,6.06-6.03,6.83-.62.18-1.26.25-1.93.25ZM543.48,316.25c0,4.43-3.59,8.01-8.01,8.01-.67,0-1.33-.09-1.95-.25-3.21-.78-5.63-3.5-6.01-6.85-.04-.29-.05-.6-.05-.91,0-1.62.47-3.13,1.29-4.37,1.29-1.99,3.42-3.35,5.9-3.61.27-.02.55-.04.82-.04.58,0,1.17.05,1.71.18,2.39.53,4.39,2.11,5.45,4.24.55,1.07.86,2.29.86,3.59Z"/>
  <g>
    <path class="cls-3" d="M181.91,673.7l-11,33.18h-6.54l-8.2-24.55-8.34,24.55h-6.59l-11-33.18h6.4l8.25,25.22,8.58-25.22h5.69l8.39,25.36,8.49-25.36h5.88Z"/>
    <path class="cls-3" d="M216.42,673.7v33.18h-6.16v-14.22h-17.16v14.22h-6.16v-33.18h6.16v13.7h17.16v-13.7h6.16Z"/>
    <path class="cls-3" d="M250.21,701.71v5.17h-24.88v-33.18h24.22v5.17h-18.06v8.63h16.02v5.07h-16.02v9.15h18.72Z"/>
    <path class="cls-3" d="M278.79,706.87l-6.78-9.72c-.28.03-.71.05-1.28.05h-7.49v9.67h-6.16v-33.18h13.65c2.87,0,5.38.47,7.51,1.42,2.13.95,3.77,2.31,4.91,4.08,1.14,1.77,1.71,3.87,1.71,6.3s-.61,4.65-1.82,6.45c-1.22,1.8-2.96,3.14-5.24,4.03l7.63,10.9h-6.64ZM276.57,680.62c-1.39-1.14-3.43-1.71-6.11-1.71h-7.2v13.22h7.2c2.69,0,4.72-.58,6.11-1.73,1.39-1.15,2.08-2.79,2.08-4.91s-.69-3.74-2.08-4.88Z"/>
    <path class="cls-3" d="M316.62,701.71v5.17h-24.88v-33.18h24.22v5.17h-18.06v8.63h16.02v5.07h-16.02v9.15h18.72Z"/>
    <path class="cls-3" d="M358.09,699.2h-16.59l-3.27,7.68h-6.35l14.93-33.18h6.07l14.98,33.18h-6.45l-3.32-7.68ZM356.05,694.36l-6.26-14.5-6.21,14.5h12.47Z"/>
    <path class="cls-3" d="M372.07,673.7h6.16v33.18h-6.16v-33.18Z"/>
    <path class="cls-3" d="M428.14,692.63c1.07,1.41,1.61,3.15,1.61,5.24,0,2.88-1.11,5.09-3.32,6.66-2.21,1.56-5.43,2.35-9.67,2.35h-16.49v-33.18h15.55c3.92,0,6.93.77,9.05,2.3,2.12,1.53,3.18,3.64,3.18,6.33,0,1.64-.38,3.1-1.14,4.36-.76,1.26-1.8,2.24-3.13,2.94,1.83.6,3.29,1.6,4.36,3.01ZM406.44,678.53v9.15h8.72c2.15,0,3.8-.39,4.95-1.16,1.15-.77,1.73-1.9,1.73-3.39s-.58-2.66-1.73-3.44c-1.15-.77-2.8-1.16-4.95-1.16h-8.72ZM423.55,697.25c0-3.19-2.39-4.79-7.16-4.79h-9.95v9.58h9.95c4.77,0,7.16-1.6,7.16-4.79Z"/>
    <path class="cls-3" d="M439.9,703.48c-2.56-2.57-3.84-6.26-3.84-11.07v-18.72h6.16v18.49c0,6.51,2.81,9.76,8.44,9.76s8.39-3.25,8.39-9.76v-18.49h6.07v18.72c0,4.8-1.27,8.49-3.82,11.07-2.54,2.58-6.11,3.86-10.69,3.86s-8.15-1.29-10.71-3.86Z"/>
    <path class="cls-3" d="M473.74,673.7h6.16v33.18h-6.16v-33.18Z"/>
    <path class="cls-3" d="M488.86,673.7h6.16v27.96h17.35v5.21h-23.51v-33.18Z"/>
    <path class="cls-3" d="M517.25,673.7h14.5c3.54,0,6.68.69,9.43,2.06,2.75,1.37,4.88,3.32,6.4,5.83,1.52,2.51,2.27,5.41,2.27,8.7s-.76,6.19-2.27,8.7c-1.52,2.51-3.65,4.46-6.4,5.83-2.75,1.37-5.89,2.06-9.43,2.06h-14.5v-33.18ZM531.47,701.66c2.43,0,4.57-.47,6.42-1.4,1.85-.93,3.27-2.26,4.27-3.98,1-1.72,1.49-3.72,1.49-6s-.5-4.27-1.49-6c-.99-1.72-2.42-3.05-4.27-3.98-1.85-.93-3.99-1.4-6.42-1.4h-8.06v22.75h8.06Z"/>
    <path class="cls-3" d="M581.29,701.71v5.17h-24.88v-33.18h24.22v5.17h-18.06v8.63h16.02v5.07h-16.02v9.15h18.72Z"/>
    <path class="cls-3" d="M609.87,706.87l-6.78-9.72c-.28.03-.71.05-1.28.05h-7.49v9.67h-6.16v-33.18h13.65c2.87,0,5.38.47,7.51,1.42,2.13.95,3.77,2.31,4.91,4.08,1.14,1.77,1.71,3.87,1.71,6.3s-.61,4.65-1.83,6.45c-1.22,1.8-2.96,3.14-5.24,4.03l7.63,10.9h-6.64ZM607.64,680.62c-1.39-1.14-3.43-1.71-6.11-1.71h-7.2v13.22h7.2c2.69,0,4.72-.58,6.11-1.73,1.39-1.15,2.08-2.79,2.08-4.91s-.69-3.74-2.08-4.88Z"/>
    <path class="cls-3" d="M625.68,706.26c-2.39-.73-4.27-1.69-5.66-2.89l2.13-4.79c1.36,1.07,3.03,1.95,5,2.63,1.98.68,3.96,1.02,5.95,1.02,2.46,0,4.3-.39,5.52-1.19,1.22-.79,1.82-1.83,1.82-3.13,0-.95-.34-1.73-1.02-2.35-.68-.62-1.54-1.1-2.58-1.45-1.04-.35-2.46-.74-4.27-1.19-2.53-.6-4.57-1.2-6.14-1.8-1.56-.6-2.91-1.54-4.03-2.82-1.12-1.28-1.68-3.01-1.68-5.19,0-1.83.5-3.5,1.49-5,.99-1.5,2.5-2.69,4.5-3.58,2.01-.88,4.46-1.33,7.37-1.33,2.02,0,4.01.25,5.97.76,1.96.51,3.65,1.23,5.07,2.18l-1.94,4.79c-1.45-.85-2.97-1.5-4.55-1.94-1.58-.44-3.11-.66-4.6-.66-2.43,0-4.24.41-5.43,1.23-1.19.82-1.78,1.91-1.78,3.27,0,.95.34,1.72,1.02,2.32.68.6,1.54,1.08,2.58,1.42,1.04.35,2.47.74,4.27,1.19,2.46.57,4.49,1.16,6.07,1.78,1.58.62,2.93,1.56,4.05,2.82,1.12,1.26,1.68,2.97,1.68,5.12,0,1.83-.5,3.49-1.49,4.98-.99,1.49-2.5,2.67-4.53,3.55-2.02.88-4.49,1.33-7.39,1.33-2.56,0-5.03-.36-7.42-1.09Z"/>
    <path class="cls-3" d="M668.57,706.26c-2.39-.73-4.27-1.69-5.66-2.89l2.13-4.79c1.36,1.07,3.03,1.95,5,2.63,1.98.68,3.96,1.02,5.95,1.02,2.46,0,4.3-.39,5.52-1.19,1.22-.79,1.82-1.83,1.82-3.13,0-.95-.34-1.73-1.02-2.35-.68-.62-1.54-1.1-2.58-1.45-1.04-.35-2.46-.74-4.27-1.19-2.53-.6-4.57-1.2-6.14-1.8-1.56-.6-2.91-1.54-4.03-2.82-1.12-1.28-1.68-3.01-1.68-5.19,0-1.83.5-3.5,1.49-5,.99-1.5,2.5-2.69,4.5-3.58,2.01-.88,4.46-1.33,7.37-1.33,2.02,0,4.01.25,5.97.76,1.96.51,3.65,1.23,5.07,2.18l-1.94,4.79c-1.45-.85-2.97-1.5-4.55-1.94-1.58-.44-3.11-.66-4.6-.66-2.43,0-4.24.41-5.43,1.23-1.19.82-1.78,1.91-1.78,3.27,0,.95.34,1.72,1.02,2.32.68.6,1.54,1.08,2.58,1.42,1.04.35,2.47.74,4.27,1.19,2.46.57,4.49,1.16,6.07,1.78,1.58.62,2.93,1.56,4.05,2.82,1.12,1.26,1.68,2.97,1.68,5.12,0,1.83-.5,3.49-1.49,4.98-.99,1.49-2.5,2.67-4.53,3.55-2.02.88-4.49,1.33-7.39,1.33-2.56,0-5.03-.36-7.42-1.09Z"/>
    <path class="cls-3" d="M725,673.7v33.18h-6.16v-14.22h-17.16v14.22h-6.16v-33.18h6.16v13.7h17.16v-13.7h6.16Z"/>
    <path class="cls-3" d="M733.91,673.7h6.16v33.18h-6.16v-33.18Z"/>
    <path class="cls-3" d="M770.19,675.12c2.13.95,3.77,2.31,4.91,4.08,1.14,1.77,1.71,3.87,1.71,6.3s-.57,4.5-1.71,6.28-2.77,3.15-4.91,4.1c-2.13.95-4.64,1.42-7.51,1.42h-7.49v9.57h-6.16v-33.18h13.65c2.87,0,5.38.47,7.51,1.42ZM768.51,690.38c1.39-1.14,2.08-2.76,2.08-4.88s-.69-3.74-2.08-4.88c-1.39-1.14-3.43-1.71-6.11-1.71h-7.2v13.18h7.2c2.69,0,4.72-.57,6.11-1.71Z"/>
    <path class="cls-3" d="M780.69,706.09c-.76-.74-1.14-1.68-1.14-2.82s.37-2.12,1.11-2.84c.74-.73,1.67-1.09,2.77-1.09s2.03.36,2.77,1.09c.74.73,1.11,1.68,1.11,2.84s-.38,2.08-1.14,2.82c-.76.74-1.67,1.11-2.75,1.11s-1.99-.37-2.75-1.11Z"/>
  </g>
  <g>
    <path class="cls-2" d="M487.1,565.51c1.4,0,2.2.7,2.2,2.2v9.72c0,1.4-.8,2.2-2.2,2.2h-38.48c-10.32,0-15.22,2.91-15.22,13.42v4.44h52.81c1.4,0,2.2.8,2.2,2.2v8.91c0,1.5-.8,2.2-2.2,2.2h-52.81v29.57c0,1.5-.7,2.2-2.2,2.2h-10.82c-1.5,0-2.2-.7-2.2-2.2v-44.73c0-19.23,7.71-30.14,28.04-30.14h40.87Z"/>
    <g>
      <path class="cls-2" d="M783.84,612.91c0,21.13,7.71,29.21,28.04,29.21h40.59c1.4,0,2.2-.77,2.2-2.43v-10.73c0-1.55-.8-2.43-2.2-2.43h-40.49c-10.32,0-13.02-3.21-13.02-14.83v-1.33h52.91c1.4,0,2.2-.77,2.2-2.43v-9.85c0-1.66-.8-2.43-2.2-2.43h-63.12c-2.71,0-4.91,2.2-4.91,4.91v12.35Z"/>
      <path class="cls-2" d="M852.47,564.67h-40.59c-15.19,0-23.33,4.51-26.48,15.6h67.07c1.4,0,2.2-.88,2.2-2.43v-10.73c0-1.66-.8-2.43-2.2-2.43Z"/>
    </g>
    <g>
      <path class="cls-2" d="M242.87,612.91c0,21.13,7.71,29.21,28.04,29.21h40.59c1.4,0,2.2-.77,2.2-2.43v-10.73c0-1.55-.8-2.43-2.2-2.43h-40.49c-10.32,0-13.02-3.21-13.02-14.83v-1.33h52.91c1.4,0,2.2-.77,2.2-2.43v-9.85c0-1.66-.8-2.43-2.2-2.43h-64.09c-2.18,0-3.95,1.77-3.95,3.95v13.31Z"/>
      <path class="cls-2" d="M311.5,564.67h-66c-1.45,0-2.63,1.18-2.63,2.63v10.33c0,1.45,1.18,2.63,2.63,2.63h66c1.4,0,2.2-.88,2.2-2.43v-10.73c0-1.66-.8-2.43-2.2-2.43Z"/>
    </g>
    <g>
      <path class="cls-2" d="M158.53,612.91c0,21.13,7.71,29.21,28.04,29.21h40.59c1.4,0,2.2-.77,2.2-2.43v-10.73c0-1.55-.8-2.43-2.2-2.43h-40.49c-10.32,0-13.02-3.21-13.02-14.83v-1.33h52.91c1.4,0,2.2-.77,2.2-2.43v-9.85c0-1.66-.8-2.43-2.2-2.43h-64.09c-2.18,0-3.95,1.77-3.95,3.95v13.31Z"/>
      <path class="cls-2" d="M227.17,564.67h-66c-1.45,0-2.63,1.18-2.63,2.63v10.33c0,1.45,1.18,2.63,2.63,2.63h66c1.4,0,2.2-.88,2.2-2.43v-10.73c0-1.66-.8-2.43-2.2-2.43Z"/>
      <path class="cls-2" d="M115.5,564.66h-49.98c-1.45,0-2.63,1.18-2.63,2.65v72.17c0,1.46,1.18,2.63,2.63,2.63h49.98c16.02,0,29.02-13,29.02-29.02v-19.4c0-16.04-13-29.03-29.02-29.03ZM128.92,611.53c0,8.27-6.71,14.99-14.98,14.99h-35.44v-46.25h35.44c8.27,0,14.98,6.71,14.98,14.99v16.27Z"/>
    </g>
    <g>
      <path class="cls-2" d="M158.53,612.91c0,21.13,7.71,29.21,28.04,29.21h40.59c1.4,0,2.2-.77,2.2-2.43v-10.73c0-1.55-.8-2.43-2.2-2.43h-40.49c-10.32,0-13.02-3.21-13.02-14.83v-1.33h52.91c1.4,0,2.2-.77,2.2-2.43v-9.85c0-1.66-.8-2.43-2.2-2.43h-64.09c-2.18,0-3.95,1.77-3.95,3.95v13.31Z"/>
      <path class="cls-2" d="M227.17,564.67h-66c-1.45,0-2.63,1.18-2.63,2.63v10.33c0,1.45,1.18,2.63,2.63,2.63h66c1.4,0,2.2-.88,2.2-2.43v-10.73c0-1.66-.8-2.43-2.2-2.43Z"/>
      <g>
        <path class="cls-2" d="M115.5,564.66h-49.98c-1.45,0-2.63,1.18-2.63,2.65v72.17c0,1.46,1.18,2.63,2.63,2.63h49.98c16.02,0,29.02-13,29.02-29.02v-19.4c0-16.04-13-29.03-29.02-29.03ZM128.92,611.53c0,8.27-6.71,14.99-14.98,14.99h-35.44v-46.25h35.44c8.27,0,14.98,6.71,14.98,14.99v16.27Z"/>
        <path class="cls-2" d="M724.88,598.63v8.84c0,1.24,1.18,2.25,2.63,2.25h27.66v16.8h-35.44c-8.28,0-14.99-6.71-14.99-14.99v-16.27c0-8.28,6.72-14.99,14.99-14.99h48.32v-12.96c0-1.46-1.18-2.65-2.65-2.65h-47.24c-16.02,0-29.02,13-29.02,29.03v19.4c0,16.03,12.99,29.02,29.02,29.02h39.38c7.3,0,13.22-5.92,13.22-13.22v-28.83c0-2.04-1.65-3.69-3.69-3.69h-39.56c-1.45,0-2.63,1.01-2.63,2.25Z"/>
      </g>
    </g>
    <path class="cls-2" d="M556.68,563.99h-27.04c-16.63,0-30.1,13.47-30.1,30.1v18.39c0,16.63,13.47,30.1,30.1,30.1h27.04c16.62,0,30.1-13.47,30.1-30.1v-18.39c0-16.63-13.48-30.1-30.1-30.1ZM570.53,612.48c0,7.64-6.22,13.85-13.85,13.85h-27.04c-7.64,0-13.85-6.22-13.85-13.85v-18.39c0-7.65,6.22-13.85,13.85-13.85h27.04c7.64,0,13.85,6.21,13.85,13.85v18.39Z"/>
    <path class="cls-2" d="M387.19,616.45c9.13-3.15,15.71-11.8,15.71-22v-6.14c0-12.86-10.43-23.29-23.29-23.29h-49.02c-1.26,0-2.29,1.02-2.29,2.29v10.51c0,1.26,1.02,2.29,2.29,2.29h47.72c4.88,0,8.83,3.95,8.83,8.83v4.9c0,4.88-3.95,8.83-8.83,8.83h-47.07c-2.34,0-4.23,1.89-4.23,4.23v33.11c0,1.45,1.18,2.63,2.63,2.63h11.17c1.45,0,2.63-1.18,2.63-2.63v-22.25h28.26l16.98,23.78c.49.69,1.29,1.1,2.14,1.1h9.97c2.14,0,3.38-2.42,2.14-4.16l-15.72-22.01Z"/>
    <path class="cls-2" d="M660.25,616.45c9.13-3.15,15.71-11.8,15.71-22v-6.14c0-12.86-10.43-23.29-23.29-23.29h-49.02c-1.26,0-2.29,1.02-2.29,2.29v10.51c0,1.26,1.02,2.29,2.29,2.29h47.72c4.88,0,8.83,3.95,8.83,8.83v4.9c0,4.88-3.95,8.83-8.83,8.83h-47.07c-2.34,0-4.23,1.89-4.23,4.23v33.11c0,1.45,1.18,2.63,2.63,2.63h11.17c1.45,0,2.63-1.18,2.63-2.63v-22.25h28.26l16.98,23.78c.49.69,1.29,1.1,2.14,1.1h9.97c2.14,0,3.38-2.42,2.14-4.16l-15.72-22.01Z"/>
  </g>
</svg>