<?xml version="1.0" encoding="UTF-8"?>
<svg id="Layer_1" data-name="Layer 1" xmlns="http://www.w3.org/2000/svg" viewBox="0 0 484.33 484.33">
  <defs>
    <style>
      .cls-1 {
        fill: #d97757;
      }
    </style>
  </defs>
  <path class="cls-1" d="M373.76,75.72c-12.24,0-22.17,9.92-22.17,22.17,0,6.2,2.55,11.8,6.65,15.82h0s-28,45.51-28,45.51c-1.67-.47-3.42-.73-5.23-.73-.92,0-1.83.06-2.72.2l-23.69-55.37v-.02c5.52-4.03,9.13-10.54,9.13-17.9,0-12.24-9.92-22.17-22.17-22.17s-22.17,9.92-22.17,22.17,9.92,22.17,22.17,22.17c1.36,0,2.69-.14,3.98-.38h0s23.69,55.32,23.69,55.32c-4.57,3.5-7.52,9.05-7.52,15.27,0,3.25.81,6.32,2.22,8.99l-65.78,62.28-65.78-62.26c1.42-2.7,2.22-5.77,2.22-9.01,0-6.22-2.95-11.77-7.52-15.27l23.69-55.31h0c1.29.22,2.61.36,3.97.36,12.24,0,22.17-9.92,22.17-22.17s-9.92-22.17-22.17-22.17-22.17,9.92-22.17,22.17c0,7.37,3.61,13.88,9.14,17.91v.02s-23.7,55.37-23.7,55.37c-.89-.14-1.79-.2-2.72-.2-1.81,0-3.58.26-5.25.73l-28-45.51c4.1-4.02,6.65-9.62,6.65-15.82,0-12.24-9.92-22.17-22.17-22.17s-22.17,9.92-22.17,22.17,9.92,22.17,22.17,22.17c2.5,0,4.89-.43,7.14-1.2v.02s27.91,45.34,27.91,45.34c-3.44,3.48-5.57,8.28-5.57,13.56,0,10.65,8.64,19.28,19.28,19.28,3.84,0,7.4-1.12,10.39-3.03l67.53,63.93v119.39c-9.88,2.24-17.26,11.05-17.26,21.6,0,12.24,9.92,22.17,22.17,22.17s22.17-9.92,22.17-22.17c0-10.55-7.37-19.35-17.24-21.6v-119.4l67.53-63.95c2.99,1.93,6.55,3.05,10.39,3.05,10.65,0,19.28-8.64,19.28-19.28,0-5.27-2.13-10.07-5.59-13.56l27.92-45.34v-.02c2.25.76,4.64,1.19,7.14,1.19,12.24,0,22.17-9.92,22.17-22.17s-9.92-22.17-22.17-22.17ZM159.33,186.42c-4.78,0-8.66-3.88-8.66-8.66,0-1.4.32-2.7.91-3.86,1.14-2.32,3.31-4.03,5.9-4.6.59-.14,1.22-.2,1.85-.2.29,0,.59.02.87.04,2.68.28,5,1.75,6.4,3.9.89,1.34,1.4,2.97,1.4,4.72,0,.33-.02.67-.06,1-.41,3.62-3.05,6.55-6.51,7.38-.67.2-1.36.28-2.09.28ZM333.67,177.77c0,4.78-3.88,8.66-8.66,8.66-.73,0-1.44-.1-2.11-.28-3.46-.85-6.08-3.78-6.49-7.4-.04-.31-.06-.65-.06-.98,0-1.75.51-3.38,1.4-4.72,1.4-2.14,3.7-3.62,6.38-3.9.29-.02.59-.04.89-.04.63,0,1.26.06,1.85.2,2.58.57,4.74,2.28,5.88,4.58.59,1.16.92,2.48.92,3.88Z"/>
</svg>