<?xml version="1.0" encoding="UTF-8"?>
<svg id="Layer_1" data-name="Layer 1" xmlns="http://www.w3.org/2000/svg" viewBox="0 0 1113.33 493.59">
  <defs>
    <style>
      .cls-1 {
        fill: #d97757;
      }

      .cls-2 {
        fill: #fff;
      }

      .cls-3 {
        fill: #9c5748;
      }
    </style>
  </defs>
  <path class="cls-1" d="M218.91,147.25c-7.32,0-13.26,5.94-13.26,13.26,0,3.71,1.53,7.06,3.98,9.46h0s-16.75,27.22-16.75,27.22c-1-.28-2.05-.44-3.13-.44-.55,0-1.09.04-1.62.12l-14.17-33.12h0c3.31-2.42,5.46-6.32,5.46-10.72,0-7.32-5.94-13.26-13.26-13.26s-13.26,5.94-13.26,13.26,5.94,13.26,13.26,13.26c.81,0,1.61-.08,2.38-.23h0s14.17,33.09,14.17,33.09c-2.73,2.09-4.5,5.41-4.5,9.13,0,1.94.48,3.78,1.33,5.38l-39.34,37.25-39.34-37.24c.85-1.61,1.33-3.45,1.33-5.39,0-3.72-1.77-7.04-4.5-9.13l14.17-33.08h0c.77.13,1.56.22,2.38.22,7.32,0,13.26-5.94,13.26-13.26s-5.94-13.26-13.26-13.26-13.26,5.94-13.26,13.26c0,4.41,2.16,8.3,5.47,10.71h0s-14.17,33.13-14.17,33.13c-.53-.08-1.07-.12-1.62-.12-1.08,0-2.14.15-3.14.44l-16.74-27.22c2.45-2.41,3.98-5.75,3.98-9.46,0-7.32-5.94-13.26-13.26-13.26s-13.26,5.94-13.26,13.26,5.94,13.26,13.26,13.26c1.49,0,2.93-.26,4.27-.72h0s16.69,27.13,16.69,27.13c-2.06,2.08-3.33,4.95-3.33,8.11,0,6.37,5.17,11.53,11.53,11.53,2.29,0,4.42-.67,6.21-1.81l40.39,38.24v71.41c-5.91,1.34-10.32,6.61-10.32,12.92,0,7.32,5.94,13.26,13.26,13.26s13.26-5.94,13.26-13.26c0-6.31-4.41-11.57-10.31-12.92v-71.41l40.39-38.25c1.79,1.15,3.92,1.82,6.21,1.82,6.37,0,11.53-5.17,11.53-11.53,0-3.15-1.27-6.03-3.34-8.11l16.7-27.11h0c1.34.45,2.77.7,4.26.7,7.32,0,13.26-5.94,13.26-13.26s-5.94-13.26-13.26-13.26ZM90.66,213.46c-2.86,0-5.18-2.32-5.18-5.18,0-.84.19-1.61.54-2.31.68-1.39,1.98-2.41,3.53-2.75.35-.08.73-.12,1.11-.12.18,0,.35.01.52.02,1.6.16,2.99,1.05,3.82,2.33.53.8.84,1.78.84,2.82,0,.2-.01.4-.04.6-.25,2.17-1.82,3.92-3.9,4.41-.4.12-.81.16-1.25.16ZM194.93,208.28c0,2.86-2.32,5.18-5.18,5.18-.44,0-.86-.06-1.26-.16-2.07-.51-3.64-2.26-3.88-4.42-.02-.19-.04-.39-.04-.59,0-1.05.31-2.02.84-2.82.84-1.28,2.21-2.17,3.81-2.33.18-.01.35-.02.53-.02.38,0,.75.04,1.11.12,1.54.34,2.84,1.37,3.52,2.74.35.69.55,1.48.55,2.32Z"/>
  <g>
    <g>
      <path class="cls-3" d="M315.52,310.93l-11.14,33.6h-6.62l-8.31-24.87-8.45,24.87h-6.67l-11.14-33.6h6.48l8.35,25.54,8.69-25.54h5.76l8.5,25.68,8.59-25.68h5.95Z"/>
      <path class="cls-3" d="M350.47,310.93v33.6h-6.24v-14.4h-17.38v14.4h-6.24v-33.6h6.24v13.87h17.38v-13.87h6.24Z"/>
      <path class="cls-3" d="M384.7,339.3v5.23h-25.2v-33.6h24.53v5.23h-18.29v8.74h16.23v5.14h-16.23v9.26h18.96Z"/>
      <path class="cls-3" d="M413.64,344.53l-6.87-9.84c-.29.03-.72.05-1.3.05h-7.58v9.79h-6.24v-33.6h13.83c2.91,0,5.45.48,7.61,1.44,2.16.96,3.82,2.34,4.97,4.13,1.15,1.79,1.73,3.92,1.73,6.38s-.62,4.71-1.85,6.53c-1.23,1.82-3,3.18-5.3,4.08l7.73,11.04h-6.72ZM411.39,317.94c-1.41-1.15-3.47-1.73-6.19-1.73h-7.3v13.39h7.3c2.72,0,4.78-.58,6.19-1.75s2.11-2.82,2.11-4.97-.7-3.79-2.11-4.94Z"/>
      <path class="cls-3" d="M451.95,339.3v5.23h-25.2v-33.6h24.53v5.23h-18.29v8.74h16.23v5.14h-16.23v9.26h18.96Z"/>
      <path class="cls-3" d="M493.95,336.75h-16.8l-3.31,7.78h-6.43l15.12-33.6h6.14l15.17,33.6h-6.53l-3.36-7.78ZM491.89,331.86l-6.34-14.69-6.29,14.69h12.62Z"/>
      <path class="cls-3" d="M508.11,310.93h6.24v33.6h-6.24v-33.6Z"/>
      <path class="cls-3" d="M564.9,330.1c1.09,1.42,1.63,3.19,1.63,5.3,0,2.91-1.12,5.16-3.36,6.74-2.24,1.58-5.5,2.38-9.79,2.38h-16.7v-33.6h15.75c3.97,0,7.02.78,9.17,2.33,2.14,1.55,3.22,3.69,3.22,6.41,0,1.66-.38,3.14-1.15,4.42-.77,1.28-1.82,2.27-3.17,2.98,1.86.61,3.33,1.63,4.42,3.05ZM542.91,315.82v9.26h8.83c2.18,0,3.85-.39,5.02-1.18,1.17-.78,1.75-1.93,1.75-3.43s-.58-2.7-1.75-3.48c-1.17-.78-2.84-1.18-5.02-1.18h-8.83ZM560.24,334.78c0-3.23-2.42-4.85-7.25-4.85h-10.08v9.7h10.08c4.83,0,7.25-1.62,7.25-4.85Z"/>
      <path class="cls-3" d="M576.8,341.1c-2.59-2.61-3.89-6.34-3.89-11.21v-18.96h6.24v18.72c0,6.59,2.85,9.89,8.55,9.89s8.5-3.3,8.5-9.89v-18.72h6.14v18.96c0,4.86-1.29,8.6-3.87,11.21-2.58,2.61-6.18,3.91-10.82,3.91s-8.26-1.3-10.85-3.91Z"/>
      <path class="cls-3" d="M611.08,310.93h6.24v33.6h-6.24v-33.6Z"/>
      <path class="cls-3" d="M626.39,310.93h6.24v28.32h17.57v5.28h-23.81v-33.6Z"/>
      <path class="cls-3" d="M655.14,310.93h14.69c3.58,0,6.77.7,9.55,2.09,2.78,1.39,4.94,3.36,6.48,5.9,1.54,2.54,2.3,5.48,2.3,8.81s-.77,6.26-2.3,8.81c-1.54,2.54-3.7,4.51-6.48,5.9-2.78,1.39-5.97,2.09-9.55,2.09h-14.69v-33.6ZM669.55,339.25c2.46,0,4.63-.47,6.5-1.42,1.87-.94,3.31-2.29,4.32-4.03,1.01-1.74,1.51-3.77,1.51-6.07s-.5-4.33-1.51-6.07c-1.01-1.74-2.45-3.09-4.32-4.03-1.87-.94-4.04-1.42-6.5-1.42h-8.16v23.04h8.16Z"/>
      <path class="cls-3" d="M720,339.3v5.23h-25.2v-33.6h24.53v5.23h-18.29v8.74h16.22v5.14h-16.22v9.26h18.96Z"/>
      <path class="cls-3" d="M748.94,344.53l-6.87-9.84c-.29.03-.72.05-1.3.05h-7.58v9.79h-6.24v-33.6h13.83c2.91,0,5.45.48,7.61,1.44,2.16.96,3.82,2.34,4.97,4.13,1.15,1.79,1.73,3.92,1.73,6.38s-.62,4.71-1.85,6.53c-1.23,1.82-3,3.18-5.3,4.08l7.73,11.04h-6.72ZM746.69,317.94c-1.41-1.15-3.47-1.73-6.19-1.73h-7.3v13.39h7.3c2.72,0,4.78-.58,6.19-1.75,1.41-1.17,2.11-2.82,2.11-4.97s-.7-3.79-2.11-4.94Z"/>
      <path class="cls-3" d="M764.95,343.9c-2.42-.74-4.33-1.71-5.74-2.93l2.16-4.85c1.38,1.09,3.06,1.98,5.06,2.66,2,.69,4.01,1.03,6.02,1.03,2.5,0,4.36-.4,5.59-1.2,1.23-.8,1.85-1.86,1.85-3.17,0-.96-.34-1.75-1.03-2.38-.69-.62-1.56-1.11-2.62-1.46-1.06-.35-2.5-.75-4.32-1.2-2.56-.61-4.63-1.22-6.22-1.82-1.58-.61-2.94-1.56-4.08-2.86-1.14-1.3-1.7-3.05-1.7-5.26,0-1.86.5-3.54,1.51-5.06,1.01-1.52,2.53-2.73,4.56-3.62,2.03-.9,4.52-1.34,7.46-1.34,2.05,0,4.06.26,6.05.77,1.98.51,3.7,1.25,5.14,2.21l-1.97,4.85c-1.47-.86-3.01-1.52-4.61-1.97-1.6-.45-3.15-.67-4.66-.67-2.46,0-4.3.42-5.5,1.25s-1.8,1.94-1.8,3.31c0,.96.34,1.74,1.03,2.35.69.61,1.56,1.09,2.62,1.44,1.06.35,2.5.75,4.32,1.2,2.5.58,4.54,1.18,6.14,1.8,1.6.62,2.97,1.58,4.11,2.86,1.13,1.28,1.7,3.01,1.7,5.18,0,1.86-.5,3.54-1.51,5.04-1.01,1.5-2.54,2.7-4.58,3.6-2.05.9-4.54,1.35-7.49,1.35-2.59,0-5.1-.37-7.51-1.11Z"/>
      <path class="cls-3" d="M808.4,343.9c-2.42-.74-4.33-1.71-5.74-2.93l2.16-4.85c1.38,1.09,3.06,1.98,5.06,2.66s4.01,1.03,6.02,1.03c2.5,0,4.36-.4,5.59-1.2,1.23-.8,1.85-1.86,1.85-3.17,0-.96-.34-1.75-1.03-2.38-.69-.62-1.56-1.11-2.62-1.46-1.06-.35-2.5-.75-4.32-1.2-2.56-.61-4.63-1.22-6.22-1.82-1.58-.61-2.94-1.56-4.08-2.86-1.14-1.3-1.7-3.05-1.7-5.26,0-1.86.5-3.54,1.51-5.06,1.01-1.52,2.53-2.73,4.56-3.62,2.03-.9,4.52-1.34,7.46-1.34,2.05,0,4.06.26,6.05.77,1.98.51,3.7,1.25,5.14,2.21l-1.97,4.85c-1.47-.86-3.01-1.52-4.61-1.97-1.6-.45-3.15-.67-4.66-.67-2.46,0-4.3.42-5.5,1.25-1.2.83-1.8,1.94-1.8,3.31,0,.96.34,1.74,1.03,2.35.69.61,1.56,1.09,2.62,1.44,1.06.35,2.5.75,4.32,1.2,2.5.58,4.54,1.18,6.14,1.8,1.6.62,2.97,1.58,4.11,2.86,1.13,1.28,1.7,3.01,1.7,5.18,0,1.86-.5,3.54-1.51,5.04-1.01,1.5-2.54,2.7-4.58,3.6-2.05.9-4.54,1.35-7.49,1.35-2.59,0-5.1-.37-7.51-1.11Z"/>
      <path class="cls-3" d="M865.54,310.93v33.6h-6.24v-14.4h-17.38v14.4h-6.24v-33.6h6.24v13.87h17.38v-13.87h6.24Z"/>
      <path class="cls-3" d="M874.57,310.93h6.24v33.6h-6.24v-33.6Z"/>
      <path class="cls-3" d="M911.32,312.37c2.16.96,3.82,2.34,4.97,4.13,1.15,1.79,1.73,3.92,1.73,6.38s-.58,4.55-1.73,6.36c-1.15,1.81-2.81,3.19-4.97,4.15-2.16.96-4.7,1.44-7.61,1.44h-7.58v9.7h-6.24v-33.6h13.83c2.91,0,5.45.48,7.61,1.44ZM909.61,327.82c1.41-1.15,2.11-2.8,2.11-4.95s-.7-3.79-2.11-4.94c-1.41-1.15-3.47-1.73-6.19-1.73h-7.3v13.35h7.3c2.72,0,4.78-.58,6.19-1.73Z"/>
      <path class="cls-3" d="M921.95,343.74c-.77-.75-1.15-1.7-1.15-2.86s.38-2.14,1.13-2.88c.75-.74,1.69-1.1,2.81-1.1s2.06.37,2.81,1.1c.75.74,1.13,1.7,1.13,2.88s-.38,2.1-1.15,2.86c-.77.75-1.7,1.13-2.78,1.13s-2.02-.38-2.78-1.13Z"/>
    </g>
    <g>
      <path class="cls-2" d="M692.82,201.36c1.42,0,2.23.71,2.23,2.23v9.84c0,1.42-.81,2.23-2.23,2.23h-38.97c-10.45,0-15.41,2.94-15.41,13.59v4.49h53.48c1.42,0,2.23.81,2.23,2.23v9.03c0,1.52-.81,2.23-2.23,2.23h-53.48v29.95c0,1.52-.71,2.23-2.23,2.23h-10.96c-1.52,0-2.23-.71-2.23-2.23v-45.3c0-19.48,7.81-30.53,28.4-30.53h41.4Z"/>
      <g>
        <path class="cls-2" d="M993.35,249.36c0,21.4,7.81,29.58,28.4,29.58h41.11c1.42,0,2.23-.78,2.23-2.47v-10.87c0-1.57-.81-2.46-2.23-2.46h-41.01c-10.45,0-13.19-3.25-13.19-15.02v-1.34h53.58c1.42,0,2.23-.78,2.23-2.47v-9.97c0-1.68-.81-2.46-2.23-2.46h-63.93c-2.75,0-4.97,2.23-4.97,4.97v12.51Z"/>
        <path class="cls-2" d="M1062.86,200.51h-41.11c-15.38,0-23.63,4.57-26.82,15.8h67.93c1.42,0,2.23-.9,2.23-2.46v-10.87c0-1.68-.81-2.47-2.23-2.47Z"/>
      </g>
      <g>
        <path class="cls-2" d="M445.47,249.36c0,21.4,7.81,29.58,28.4,29.58h41.11c1.42,0,2.23-.78,2.23-2.47v-10.87c0-1.57-.81-2.46-2.23-2.46h-41.01c-10.45,0-13.19-3.25-13.19-15.02v-1.34h53.58c1.42,0,2.23-.78,2.23-2.47v-9.97c0-1.68-.81-2.46-2.23-2.46h-64.9c-2.21,0-4,1.79-4,4v13.48Z"/>
        <path class="cls-2" d="M514.98,200.51h-66.84c-1.47,0-2.67,1.19-2.67,2.67v10.46c0,1.47,1.19,2.67,2.67,2.67h66.84c1.42,0,2.23-.9,2.23-2.46v-10.87c0-1.68-.81-2.47-2.23-2.47Z"/>
      </g>
      <g>
        <path class="cls-2" d="M360.06,249.36c0,21.4,7.81,29.58,28.4,29.58h41.11c1.42,0,2.23-.78,2.23-2.47v-10.87c0-1.57-.81-2.46-2.23-2.46h-41.01c-10.45,0-13.19-3.25-13.19-15.02v-1.34h53.58c1.42,0,2.23-.78,2.23-2.47v-9.97c0-1.68-.81-2.46-2.23-2.46h-64.9c-2.21,0-4,1.79-4,4v13.48Z"/>
        <path class="cls-2" d="M429.57,200.51h-66.84c-1.47,0-2.67,1.19-2.67,2.67v10.46c0,1.47,1.19,2.67,2.67,2.67h66.84c1.42,0,2.23-.9,2.23-2.46v-10.87c0-1.68-.81-2.47-2.23-2.47Z"/>
        <path class="cls-2" d="M316.48,200.5h-50.61c-1.47,0-2.67,1.2-2.67,2.68v73.09c0,1.48,1.2,2.67,2.67,2.67h50.61c16.23,0,29.39-13.16,29.39-29.39v-19.65c0-16.24-13.16-29.4-29.39-29.4ZM330.07,247.97c0,8.38-6.79,15.18-15.17,15.18h-35.89v-46.84h35.89c8.38,0,15.17,6.79,15.17,15.18v16.48Z"/>
      </g>
      <g>
        <path class="cls-2" d="M360.06,249.36c0,21.4,7.81,29.58,28.4,29.58h41.11c1.42,0,2.23-.78,2.23-2.47v-10.87c0-1.57-.81-2.46-2.23-2.46h-41.01c-10.45,0-13.19-3.25-13.19-15.02v-1.34h53.58c1.42,0,2.23-.78,2.23-2.47v-9.97c0-1.68-.81-2.46-2.23-2.46h-64.9c-2.21,0-4,1.79-4,4v13.48Z"/>
        <path class="cls-2" d="M429.57,200.51h-66.84c-1.47,0-2.67,1.19-2.67,2.67v10.46c0,1.47,1.19,2.67,2.67,2.67h66.84c1.42,0,2.23-.9,2.23-2.46v-10.87c0-1.68-.81-2.47-2.23-2.47Z"/>
        <g>
          <path class="cls-2" d="M316.48,200.5h-50.61c-1.47,0-2.67,1.2-2.67,2.68v73.09c0,1.48,1.2,2.67,2.67,2.67h50.61c16.23,0,29.39-13.16,29.39-29.39v-19.65c0-16.24-13.16-29.4-29.39-29.4ZM330.07,247.97c0,8.38-6.79,15.18-15.17,15.18h-35.89v-46.84h35.89c8.38,0,15.17,6.79,15.17,15.18v16.48Z"/>
          <path class="cls-2" d="M933.64,234.9v8.95c0,1.26,1.2,2.28,2.67,2.28h28.02v17.02h-35.89c-8.39,0-15.18-6.8-15.18-15.18v-16.48c0-8.39,6.8-15.18,15.18-15.18h48.93v-13.13c0-1.48-1.2-2.68-2.68-2.68h-47.84c-16.23,0-29.39,13.16-29.39,29.4v19.65c0,16.23,13.16,29.39,29.39,29.39h39.88c7.4,0,13.39-6,13.39-13.39v-29.19c0-2.07-1.67-3.74-3.74-3.74h-40.07c-1.47,0-2.67,1.02-2.67,2.28Z"/>
        </g>
      </g>
      <path class="cls-2" d="M763.29,199.82h-27.38c-16.84,0-30.48,13.64-30.48,30.48v18.63c0,16.84,13.64,30.48,30.48,30.48h27.38c16.83,0,30.48-13.64,30.48-30.48v-18.63c0-16.84-13.66-30.48-30.48-30.48ZM777.32,248.93c0,7.73-6.3,14.03-14.03,14.03h-27.38c-7.73,0-14.03-6.3-14.03-14.03v-18.63c0-7.74,6.3-14.03,14.03-14.03h27.38c7.73,0,14.03,6.29,14.03,14.03v18.63Z"/>
      <path class="cls-2" d="M591.63,252.95c9.25-3.19,15.91-11.95,15.91-22.28v-6.22c0-13.03-10.56-23.59-23.59-23.59h-49.65c-1.28,0-2.32,1.04-2.32,2.32v10.65c0,1.28,1.04,2.32,2.32,2.32h48.33c4.94,0,8.94,4,8.94,8.94v4.96c0,4.94-4,8.94-8.94,8.94h-47.67c-2.37,0-4.28,1.92-4.28,4.28v33.53c0,1.47,1.19,2.66,2.66,2.66h11.31c1.47,0,2.66-1.19,2.66-2.66v-22.54h28.62l17.2,24.08c.5.7,1.31,1.12,2.17,1.12h10.09c2.17,0,3.43-2.45,2.17-4.21l-15.92-22.29Z"/>
      <path class="cls-2" d="M868.18,252.95c9.25-3.19,15.91-11.95,15.91-22.28v-6.22c0-13.03-10.56-23.59-23.59-23.59h-49.65c-1.28,0-2.32,1.04-2.32,2.32v10.65c0,1.28,1.04,2.32,2.32,2.32h48.33c4.94,0,8.94,4,8.94,8.94v4.96c0,4.94-4,8.94-8.94,8.94h-47.67c-2.37,0-4.28,1.92-4.28,4.28v33.53c0,1.47,1.19,2.66,2.66,2.66h11.31c1.47,0,2.66-1.19,2.66-2.66v-22.54h28.62l17.2,24.08c.5.7,1.31,1.12,2.17,1.12h10.09c2.17,0,3.43-2.45,2.17-4.21l-15.92-22.29Z"/>
    </g>
  </g>
</svg>